<?xml version="1.0" encoding="iso-8859-1"?>
<!-- Generator: Adobe Illustrator 19.0.0, SVG Export Plug-In . SVG Version: 6.00 Build 0)  -->
<svg version="1.1" id="Capa_1" xmlns="http://www.w3.org/2000/svg" xmlns:xlink="http://www.w3.org/1999/xlink" x="0px" y="0px"
	 viewBox="0 0 512 512" style="enable-background:new 0 0 512 512;" xml:space="preserve">
<g>
	<rect x="74.008" y="317.256" style="fill:#629FD6;" width="8" height="155.312"/>
	<rect x="429.992" y="317.256" style="fill:#629FD6;" width="8" height="155.312"/>
	<rect x="133.336" y="360.64" style="fill:#629FD6;" width="8" height="143.328"/>
	<rect x="192.64" y="360.64" style="fill:#629FD6;" width="8" height="143.328"/>
	<rect x="311.328" y="360.64" style="fill:#629FD6;" width="8" height="143.328"/>
	<rect x="370.64" y="360.64" style="fill:#629FD6;" width="8" height="143.328"/>
	<rect x="252" y="329.28" style="fill:#629FD6;" width="8" height="143.328"/>
</g>
<path style="fill:#DFE6F4;" d="M417.44,140.944h-7.584c-7.544-31.728-36.136-55.504-70.336-55.504
	c-8.312,0-16.728,1.832-23.696,4.152c-16.728-47.472-62.032-81.56-115.448-81.56c-67.632,0-122.456,54.544-122.456,121.84
	c0,4.24,0.232,8.416,0.64,12.552C34.112,150.064,0,188.76,0,235.08c0,51.776,42.576,94.16,94.608,94.16H417.4
	c52.024,0,94.6-42.36,94.6-94.16C512.04,183.328,469.472,140.944,417.44,140.944z"/>
<g>
</g>
<g>
</g>
<g>
</g>
<g>
</g>
<g>
</g>
<g>
</g>
<g>
</g>
<g>
</g>
<g>
</g>
<g>
</g>
<g>
</g>
<g>
</g>
<g>
</g>
<g>
</g>
<g>
</g>
</svg>
